# xmcd
#
# Track frame offsets:
#	150
#	16067
#	33403
#	46626
#	65173
#	81870
#	99287
#	114426
#	130142
#	142007
#	158640
#	175500
#	194553
#	211328
#	227639
#	240231
#	262243
#	279560
#	300475
#	322711
#	335360
#
# Disc length: 4731 seconds
#
# Revision: 0
# Processed by: cddbd v1.5.2PL0 Copyright (c) Steve Scherf et al.
# Submitted via: EasyCDDAExtractor 15.3.0.1
#
DISCID=13127915
DTITLE=Marie Rottrová - Zlatá kolekce 2010
DYEAR=2011
DGENRE=Pop
TTITLE0=Večerem zhýčkaná
TTITLE1=Dívky, která spí jen tak
TTITLE2=Měli jsme se potkat dřív
TTITLE3=Řekni, kde ty kytky jsou
TTITLE4=S tím bláznem si nic nezačínej
TTITLE5=Muž č. 1
TTITLE6=Předjaří
TTITLE7=Lakomá
TTITLE8=Pár slov, pár kroků, pár gest
TTITLE9=Pozemskej ráj
TTITLE10=Jaká zvláštní láska
TTITLE11=Vím, že tu byla
TTITLE12=Štěstí
TTITLE13=Žaluzie
TTITLE14=Má se stát?
TTITLE15=Lásko, voníš deštěm
TTITLE16=Najednou
TTITLE17=Zřejmě letos nikde nejsou kytky
TTITLE18=Ten vůz už jel
TTITLE19=Prstýnek
TTITLE20=Hodina H
EXTD=
EXTT0=
EXTT1=
EXTT2=
EXTT3=
EXTT4=
EXTT5=
EXTT6=
EXTT7=
EXTT8=
EXTT9=
EXTT10=
EXTT11=
EXTT12=
EXTT13=
EXTT14=
EXTT15=
EXTT16=
EXTT17=
EXTT18=
EXTT19=
EXTT20=
PLAYORDER=
